<svg width="35" height="37" viewBox="0 0 35 37" fill="none" xmlns="http://www.w3.org/2000/svg">
<path d="M8.78277 9.72461H9.28277V9.22461V4.6123C9.28277 2.32586 11.0503 0.5 13.1523 0.5H21.8914C23.9934 0.5 25.7609 2.32586 25.7609 4.6123V9.22461V9.72461H26.2609H34.5V20.7554C34.5 21.7965 33.7374 22.5615 32.8152 22.5615H2.22846C1.30627 22.5615 0.543695 21.7965 0.543695 20.7554V9.72461H8.78277ZM0.544332 9.62928C0.544347 9.62929 0.544298 9.62968 0.544139 9.63042L0.544332 9.62928ZM13.1523 4.1123H12.6523V4.6123V9.22461V9.72461H13.1523H21.8914H22.3914V9.22461V4.6123V4.1123H21.8914H13.1523ZM0.543695 36.3984V27.9442C1.05456 28.0792 1.5948 28.1738 2.18477 28.1738H32.7715C33.367 28.1738 33.919 28.1 34.4563 27.9528V36.3984H0.543695Z" fill="#BFE5E5" stroke="black"/>
</svg>
