<svg width="112" height="39" viewBox="0 0 112 39" fill="none" xmlns="http://www.w3.org/2000/svg">
<path d="M101.676 30.4261C99.4887 30.4261 97.5995 29.9716 96.0086 29.0625C94.4271 28.1439 93.2103 26.8466 92.358 25.1704C91.5057 23.4848 91.0796 21.5009 91.0796 19.2187C91.0796 16.9744 91.5057 15.0047 92.358 13.3096C93.2197 11.6051 94.4224 10.2793 95.966 9.33236C97.5095 8.37592 99.323 7.89771 101.406 7.89771C102.751 7.89771 104.02 8.11551 105.213 8.55111C106.416 8.97725 107.476 9.64013 108.395 10.5397C109.323 11.4394 110.052 12.5852 110.582 13.9772C111.113 15.3598 111.378 17.0076 111.378 18.9204V20.4971H93.4944V17.0312H106.449C106.439 16.0464 106.226 15.1704 105.81 14.4034C105.393 13.6269 104.811 13.0161 104.063 12.571C103.324 12.1259 102.462 11.9034 101.477 11.9034C100.426 11.9034 99.5029 12.1591 98.7074 12.6704C97.912 13.1723 97.2917 13.8352 96.8466 14.6591C96.411 15.4735 96.1885 16.3683 96.179 17.3437V20.3693C96.179 21.6382 96.411 22.7272 96.875 23.6363C97.3391 24.536 97.9877 25.2273 98.8211 25.7102C99.6544 26.1837 100.63 26.4204 101.747 26.4204C102.495 26.4204 103.172 26.3163 103.778 26.1079C104.385 25.8901 104.91 25.5729 105.355 25.1562C105.8 24.7396 106.136 24.2235 106.364 23.6079L111.165 24.1477C110.862 25.4166 110.284 26.5246 109.432 27.4716C108.589 28.4091 107.51 29.1382 106.193 29.6591C104.877 30.1704 103.371 30.4261 101.676 30.4261Z" fill="black"/>
<path d="M86.7294 0.909058V30H81.5874V0.909058H86.7294Z" fill="black"/>
<path d="M56.5874 38.1818V8.1818H61.6442V11.7897H61.9425C62.2077 11.2594 62.5817 10.696 63.0647 10.0994C63.5476 9.49335 64.201 8.97725 65.0249 8.55111C65.8488 8.11551 66.8999 7.89771 68.1783 7.89771C69.8639 7.89771 71.3838 8.32858 72.738 9.19032C74.1016 10.0426 75.1812 11.3068 75.9766 12.9829C76.7815 14.6496 77.184 16.6951 77.184 19.1193C77.184 21.5151 76.791 23.5511 76.005 25.2272C75.219 26.9034 74.149 28.1818 72.7948 29.0625C71.4406 29.9432 69.9065 30.3835 68.1925 30.3835C66.9425 30.3835 65.9056 30.1752 65.0817 29.7585C64.2579 29.3418 63.595 28.8399 63.0931 28.2528C62.6007 27.6562 62.2171 27.0928 61.9425 26.5625H61.7295V38.1818H56.5874ZM61.63 19.0909C61.63 20.5019 61.8289 21.7377 62.2266 22.7983C62.6338 23.8589 63.2162 24.6875 63.9738 25.2841C64.7408 25.8712 65.6688 26.1647 66.7579 26.1647C67.8942 26.1647 68.8459 25.8617 69.613 25.2557C70.38 24.6401 70.9577 23.8021 71.3459 22.7415C71.7437 21.6714 71.9425 20.4545 71.9425 19.0909C71.9425 17.7367 71.7484 16.5341 71.3601 15.4829C70.9719 14.4318 70.3942 13.6079 69.6272 13.0113C68.8601 12.4147 67.9037 12.1165 66.7579 12.1165C65.6594 12.1165 64.7266 12.4053 63.9596 12.9829C63.1925 13.5606 62.6101 14.3702 62.2124 15.4119C61.8241 16.4536 61.63 17.6799 61.63 19.0909Z" fill="black"/>
<path d="M31.5874 38.1818V8.1818H36.6442V11.7897H36.9425C37.2077 11.2594 37.5817 10.696 38.0647 10.0994C38.5476 9.49335 39.201 8.97725 40.0249 8.55111C40.8488 8.11551 41.8999 7.89771 43.1783 7.89771C44.8639 7.89771 46.3838 8.32858 47.738 9.19032C49.1016 10.0426 50.1812 11.3068 50.9766 12.9829C51.7815 14.6496 52.184 16.6951 52.184 19.1193C52.184 21.5151 51.791 23.5511 51.005 25.2272C50.219 26.9034 49.149 28.1818 47.7948 29.0625C46.4406 29.9432 44.9065 30.3835 43.1925 30.3835C41.9425 30.3835 40.9056 30.1752 40.0817 29.7585C39.2579 29.3418 38.595 28.8399 38.0931 28.2528C37.6007 27.6562 37.2171 27.0928 36.9425 26.5625H36.7294V38.1818H31.5874ZM36.63 19.0909C36.63 20.5019 36.8289 21.7377 37.2266 22.7983C37.6338 23.8589 38.2162 24.6875 38.9738 25.2841C39.7408 25.8712 40.6688 26.1647 41.7579 26.1647C42.8942 26.1647 43.8459 25.8617 44.613 25.2557C45.38 24.6401 45.9577 23.8021 46.3459 22.7415C46.7437 21.6714 46.9425 20.4545 46.9425 19.0909C46.9425 17.7367 46.7484 16.5341 46.3601 15.4829C45.9719 14.4318 45.3942 13.6079 44.6272 13.0113C43.8601 12.4147 42.9037 12.1165 41.7579 12.1165C40.6594 12.1165 39.7266 12.4053 38.9596 12.9829C38.1925 13.5606 37.6101 14.3702 37.2124 15.4119C36.8241 16.4536 36.63 17.6799 36.63 19.0909Z" fill="black"/>
<path d="M6.6051 30H0.980103L11.2216 0.909058H17.7273L27.9829 30H22.3579L14.5881 6.87497H14.3608L6.6051 30ZM6.78976 18.5937H22.1307V22.8267H6.78976V18.5937Z" fill="black"/>
</svg>
