<svg width="24" height="24" viewBox="0 0 24 24" fill="none" xmlns="http://www.w3.org/2000/svg">
<path fill-rule="evenodd" clip-rule="evenodd" d="M8.75149 17.6484C8.52653 17.4234 8.40015 17.1182 8.40015 16.8C8.40015 16.4818 8.52653 16.1767 8.75149 15.9516L12.7031 12L8.75149 8.04842C8.5329 7.8221 8.41195 7.51898 8.41468 7.20434C8.41742 6.88971 8.54362 6.58873 8.76611 6.36624C8.9886 6.14375 9.28957 6.01755 9.60421 6.01482C9.91885 6.01208 10.222 6.13304 10.4483 6.35163L15.2483 11.1516C15.4733 11.3767 15.5996 11.6818 15.5996 12C15.5996 12.3182 15.4733 12.6234 15.2483 12.8484L10.4483 17.6484C10.2233 17.8734 9.91809 17.9998 9.59989 17.9998C9.28169 17.9998 8.97652 17.8734 8.75149 17.6484Z" fill="white"/>
</svg>
