<svg width="12" height="13" viewBox="0 0 12 13" fill="none" xmlns="http://www.w3.org/2000/svg">
<path d="M10.0153 5.26531L6.26534 9.01531C6.23051 9.05017 6.18915 9.07783 6.14363 9.09671C6.0981 9.11558 6.04931 9.12529 6.00003 9.12529C5.95074 9.12529 5.90195 9.11558 5.85642 9.09671C5.8109 9.07783 5.76954 9.05017 5.73471 9.01531L1.98471 5.26531C1.91435 5.19494 1.87482 5.09951 1.87482 4.99999C1.87482 4.90048 1.91435 4.80505 1.98471 4.73468C2.05508 4.66432 2.15051 4.62479 2.25003 4.62479C2.34954 4.62479 2.44497 4.66432 2.51534 4.73468L6.00003 8.21984L9.48471 4.73468C9.51955 4.69984 9.56092 4.6722 9.60644 4.65335C9.65196 4.63449 9.70075 4.62479 9.75003 4.62479C9.7993 4.62479 9.84809 4.63449 9.89361 4.65335C9.93913 4.6722 9.9805 4.69984 10.0153 4.73468C10.0502 4.76952 10.0778 4.81089 10.0967 4.85641C10.1155 4.90193 10.1252 4.95072 10.1252 4.99999C10.1252 5.04927 10.1155 5.09806 10.0967 5.14358C10.0778 5.1891 10.0502 5.23047 10.0153 5.26531Z" fill="#27313F"/>
</svg>
