<svg width="16" height="17" viewBox="0 0 16 17" fill="none" xmlns="http://www.w3.org/2000/svg">
<path d="M10.3538 13.1463C10.4002 13.1927 10.4371 13.2479 10.4622 13.3086C10.4874 13.3693 10.5003 13.4343 10.5003 13.5C10.5003 13.5657 10.4874 13.6308 10.4622 13.6915C10.4371 13.7521 10.4002 13.8073 10.3538 13.8538C10.3073 13.9002 10.2522 13.9371 10.1915 13.9622C10.1308 13.9873 10.0657 14.0003 10 14.0003C9.93433 14.0003 9.86928 13.9873 9.80858 13.9622C9.74788 13.9371 9.69273 13.9002 9.64628 13.8538L4.64628 8.85375C4.59979 8.80732 4.56291 8.75217 4.53775 8.69147C4.51259 8.63077 4.49963 8.56571 4.49963 8.5C4.49963 8.4343 4.51259 8.36923 4.53775 8.30853C4.56291 8.24783 4.59979 8.19269 4.64628 8.14625L9.64628 3.14625C9.7401 3.05243 9.86735 2.99973 10 2.99973C10.1327 2.99973 10.26 3.05243 10.3538 3.14625C10.4476 3.24007 10.5003 3.36732 10.5003 3.5C10.5003 3.63269 10.4476 3.75993 10.3538 3.85375L5.7069 8.5L10.3538 13.1463Z" fill="#27313F"/>
</svg>
