<svg width="16" height="17" viewBox="0 0 16 17" fill="none" xmlns="http://www.w3.org/2000/svg">
<path d="M11.3537 8.85375L6.35372 13.8538C6.30727 13.9002 6.25212 13.9371 6.19142 13.9622C6.13072 13.9873 6.06567 14.0003 5.99997 14.0003C5.93428 14.0003 5.86922 13.9873 5.80852 13.9622C5.74783 13.9371 5.69268 13.9002 5.64622 13.8538C5.59977 13.8073 5.56292 13.7521 5.53778 13.6915C5.51263 13.6308 5.49969 13.5657 5.49969 13.5C5.49969 13.4343 5.51263 13.3693 5.53778 13.3086C5.56292 13.2479 5.59977 13.1927 5.64622 13.1463L10.2931 8.5L5.64622 3.85375C5.5524 3.75993 5.49969 3.63269 5.49969 3.5C5.49969 3.36732 5.5524 3.24007 5.64622 3.14625C5.74004 3.05243 5.86729 2.99973 5.99997 2.99973C6.13265 2.99973 6.2599 3.05243 6.35372 3.14625L11.3537 8.14625C11.4002 8.19269 11.4371 8.24783 11.4623 8.30853C11.4874 8.36923 11.5004 8.4343 11.5004 8.5C11.5004 8.56571 11.4874 8.63077 11.4623 8.69147C11.4371 8.75217 11.4002 8.80732 11.3537 8.85375Z" fill="#27313F"/>
</svg>
