<svg width="20" height="20" viewBox="0 0 20 20" fill="none" xmlns="http://www.w3.org/2000/svg">
<path d="M3.47631 14.857C2.85119 14.2319 2.5 13.3841 2.5 12.5C2.49996 11.7433 2.75734 11.0091 3.22984 10.418C3.70234 9.8269 4.36185 9.41414 5.1 9.24751C4.97326 8.70793 4.9554 8.14849 5.04747 7.60193C5.13954 7.05536 5.33969 6.53265 5.63621 6.06437C5.93273 5.59609 6.31966 5.19165 6.77437 4.87472C7.22908 4.55778 7.74243 4.33471 8.28439 4.21856C8.82635 4.10241 9.38603 4.09551 9.93068 4.19827C10.4753 4.30103 10.994 4.51138 11.4564 4.81702C11.9188 5.12265 12.3156 5.51743 12.6235 5.97826C12.9315 6.43909 13.1445 6.95671 13.25 7.50084C13.8006 7.48983 14.3479 7.58806 14.8602 7.78987C15.3726 7.99167 15.8399 8.29303 16.2351 8.67654C16.6303 9.06004 16.9455 9.51808 17.1626 10.0242C17.3797 10.5303 17.4943 11.0744 17.4998 11.625C17.5053 12.1757 17.4016 12.7219 17.1947 13.2323C16.9878 13.7426 16.6817 14.2069 16.2943 14.5982C15.9069 14.9895 15.4457 15.3002 14.9375 15.5122C14.4292 15.7242 13.884 15.8333 13.3333 15.8333H5.83333C4.94928 15.8333 4.10143 15.4822 3.47631 14.857Z" stroke="white" stroke-width="2" stroke-linecap="round" stroke-linejoin="round"/>
</svg>
