<svg width="43" height="43" viewBox="0 0 43 43" fill="none" xmlns="http://www.w3.org/2000/svg">
<circle cx="21.5" cy="21.5" r="21.5" fill="white"/>
<path d="M22.3572 10.4758C18.4036 10.4758 15.1906 13.6889 15.1906 17.6425V21.0944C15.1906 21.8231 14.88 22.9339 14.5097 23.555L13.1361 25.8364C12.2881 27.2458 12.8733 28.8106 14.4261 29.3361C19.5742 31.0561 25.1283 31.0561 30.2764 29.3361C31.7217 28.8583 32.3547 27.1503 31.5664 25.8364L30.1928 23.555C29.8344 22.9339 29.5239 21.8231 29.5239 21.0944V17.6425C29.5239 13.7008 26.2989 10.4758 22.3572 10.4758Z" stroke="#292D32" stroke-width="1.5" stroke-miterlimit="10" stroke-linecap="round"/>
<path d="M24.5669 10.8222C24.1967 10.7147 23.8144 10.6311 23.4203 10.5833C22.2736 10.44 21.1747 10.5236 20.1475 10.8222C20.4939 9.93831 21.3539 9.3172 22.3572 9.3172C23.3606 9.3172 24.2206 9.93831 24.5669 10.8222Z" stroke="#292D32" stroke-width="1.5" stroke-miterlimit="10" stroke-linecap="round" stroke-linejoin="round"/>
<path d="M25.9406 29.7661C25.9406 31.7369 24.3281 33.3494 22.3572 33.3494C21.3778 33.3494 20.47 32.9433 19.825 32.2983C19.18 31.6533 18.7739 30.7456 18.7739 29.7661" stroke="#292D32" stroke-width="1.5" stroke-miterlimit="10"/>
<circle cx="28.8333" cy="13.8334" r="4" fill="#FFD700"/>
</svg>
