<svg width="22" height="23" viewBox="0 0 22 23" fill="none" xmlns="http://www.w3.org/2000/svg">
<path d="M8.32655 19.842C8.32137 20.1892 8.38637 20.5339 8.51776 20.8562C8.64914 21.1784 8.8443 21.4718 9.09187 21.7191C9.33944 21.9664 9.63449 22.1628 9.95985 22.2969C10.2852 22.431 10.6344 22.5 10.9871 22.5C11.3398 22.5 11.689 22.431 12.0144 22.2969C12.3398 22.1628 12.6348 21.9664 12.8824 21.7191C13.13 21.4718 13.3251 21.1784 13.4565 20.8562C13.5879 20.5339 13.6529 20.1892 13.6477 19.842M18.5942 16.3794V10.0668C18.5931 8.38662 18.0169 6.75582 16.9587 5.43763C15.9005 4.11943 14.4219 3.19075 12.7617 2.80146V2.24679C12.7617 1.78351 12.5748 1.33921 12.242 1.01162C11.9093 0.684037 11.458 0.5 10.9874 0.5C10.5168 0.5 10.0655 0.684037 9.7328 1.01162C9.40005 1.33921 9.21312 1.78351 9.21312 2.24679V2.80822C7.55867 3.20192 6.08664 4.13163 5.03343 5.44803C3.98023 6.76442 3.40699 8.3911 3.40577 10.0668V16.3794L1 18.7478V19.842H21V18.7478L18.5942 16.3794Z" stroke="#A699F8" stroke-linecap="round" stroke-linejoin="round"/>
</svg>
