<svg width="22" height="25" viewBox="0 0 22 25" fill="none" xmlns="http://www.w3.org/2000/svg">
<path d="M8.32655 20.842C8.32137 21.1892 8.38637 21.5339 8.51776 21.8562C8.64914 22.1784 8.8443 22.4718 9.09187 22.7191C9.33944 22.9664 9.63449 23.1628 9.95985 23.2969C10.2852 23.431 10.6344 23.5 10.9871 23.5C11.3398 23.5 11.689 23.431 12.0144 23.2969C12.3398 23.1628 12.6348 22.9664 12.8824 22.7191C13.13 22.4718 13.3251 22.1784 13.4565 21.8562C13.5879 21.5339 13.6529 21.1892 13.6477 20.842M18.5942 17.3794V11.0668C18.5931 9.38662 18.0169 7.75582 16.9587 6.43763C15.9005 5.11943 14.4219 4.19075 12.7617 3.80146V3.24679C12.7617 2.78351 12.5748 2.33921 12.242 2.01162C11.9093 1.68404 11.458 1.5 10.9874 1.5C10.5168 1.5 10.0655 1.68404 9.7328 2.01162C9.40005 2.33921 9.21312 2.78351 9.21312 3.24679V3.80822C7.55867 4.20192 6.08664 5.13163 5.03343 6.44803C3.98023 7.76442 3.40699 9.3911 3.40577 11.0668V17.3794L1 19.7478V20.842H21V19.7478L18.5942 17.3794Z" stroke="#A699F8" stroke-width="1.5" stroke-linecap="round" stroke-linejoin="round"/>
</svg>
