<svg width="25" height="24" viewBox="0 0 25 24" fill="none" xmlns="http://www.w3.org/2000/svg">
<path d="M8.43616 2V5" stroke="black" stroke-width="1.5" stroke-miterlimit="10" stroke-linecap="round" stroke-linejoin="round"/>
<path d="M16.3584 2V5" stroke="black" stroke-width="1.5" stroke-miterlimit="10" stroke-linecap="round" stroke-linejoin="round"/>
<path d="M3.97986 9.08997H20.8146" stroke="black" stroke-width="1.5" stroke-miterlimit="10" stroke-linecap="round" stroke-linejoin="round"/>
<path d="M19.5371 15.77L16.0315 19.31C15.8929 19.45 15.7641 19.71 15.7344 19.9L15.5463 21.25C15.477 21.74 15.8137 22.0801 16.2989 22.0101L17.6358 21.82C17.8239 21.79 18.0913 21.66 18.22 21.52L21.7256 17.9801C22.3297 17.3701 22.6169 16.6601 21.7256 15.7601C20.8443 14.8701 20.1412 15.16 19.5371 15.77Z" stroke="black" stroke-width="1.5" stroke-miterlimit="10" stroke-linecap="round" stroke-linejoin="round"/>
<path d="M19.0321 16.28C19.3292 17.36 20.161 18.2 21.2305 18.5" stroke="black" stroke-width="1.5" stroke-miterlimit="10" stroke-linecap="round" stroke-linejoin="round"/>
<path d="M12.3972 22H8.43613C4.97016 22 3.48474 20 3.48474 17V8.5C3.48474 5.5 4.97016 3.5 8.43613 3.5H16.3584C19.8243 3.5 21.3097 5.5 21.3097 8.5V12" stroke="black" stroke-width="1.5" stroke-miterlimit="10" stroke-linecap="round" stroke-linejoin="round"/>
<path d="M12.3928 13.7H12.4017" stroke="black" stroke-width="2" stroke-linecap="round" stroke-linejoin="round"/>
<path d="M8.72754 13.7H8.73643" stroke="black" stroke-width="2" stroke-linecap="round" stroke-linejoin="round"/>
<path d="M8.72754 16.7H8.73643" stroke="black" stroke-width="2" stroke-linecap="round" stroke-linejoin="round"/>
</svg>
